<?xml version="1.0" encoding="UTF-8"?>
<svg version="1.1" xmlns="http://www.w3.org/2000/svg" width="512" height="512">
<path d="M0 0 C168.96 0 337.92 0 512 0 C512 168.96 512 337.92 512 512 C343.04 512 174.08 512 0 512 C0 343.04 0 174.08 0 0 Z " fill="#01411C" transform="translate(0,0)"/>
<path d="M0 0 C2.52609485 2.23895043 5.00768328 4.51882619 7.48046875 6.81640625 C8.57294922 7.79287109 8.57294922 7.79287109 9.6875 8.7890625 C34.55038983 32.03922434 50.89121537 70.15125709 52.37890625 103.9375 C52.41242188 105.21753906 52.4459375 106.49757812 52.48046875 107.81640625 C52.51688477 108.61965332 52.55330078 109.42290039 52.59082031 110.25048828 C53.27928996 126.03032828 51.26366568 140.50441445 47.48046875 155.81640625 C47.22475098 156.85643799 47.22475098 156.85643799 46.96386719 157.91748047 C40.25910555 184.17423808 24.99943432 206.53132084 6.48046875 225.81640625 C5.67258911 226.65933228 5.67258911 226.65933228 4.84838867 227.51928711 C-23.46544564 256.52321907 -64.4560822 269.61286637 -104.20703125 270.19140625 C-143.71168375 270.07055468 -181.46355455 253.21321169 -209.51953125 225.81640625 C-210.28394531 225.11386719 -211.04835937 224.41132813 -211.8359375 223.6875 C-237.80434468 199.20565638 -254.29918591 160.20701749 -255.91015625 124.77734375 C-256.02146655 119.11098375 -255.83912754 113.47346423 -255.51953125 107.81640625 C-255.4740918 106.95176758 -255.42865234 106.08712891 -255.38183594 105.19628906 C-253.19910175 68.28695802 -237.24451139 34.17755282 -211.51953125 7.81640625 C-210.90207031 7.13707031 -210.28460938 6.45773438 -209.6484375 5.7578125 C-198.11327253 -6.59945777 -183.47885862 -15.60455123 -168.51953125 -23.18359375 C-167.51277344 -23.69535156 -166.50601563 -24.20710938 -165.46875 -24.734375 C-110.95251832 -50.82140142 -44.89883828 -38.91232651 0 0 Z " fill="#F6F4EC" transform="translate(357.51953125,130.18359375)"/>
<path d="M0 0 C2.94645992 1.31731577 4.87836004 2.6996069 7.0625 5.0625 C10.01249156 8.11377882 13.124289 10.78509562 16.4375 13.4375 C20.59736851 16.7847166 24.39447154 20.28105389 28.11328125 24.10546875 C30.58999361 26.59243665 33.21676421 28.870543 35.875 31.16015625 C40.84872679 35.46645279 45.69560525 39.91906171 50.578125 44.328125 C54.32127609 47.70385022 58.06796472 51.07137435 61.875 54.375 C65.83586621 57.82271755 69.69596892 61.37759056 73.55786133 64.93505859 C77.11410007 68.20509804 80.7165319 71.41207045 84.37890625 74.5625 C84.91386719 75.036875 85.44882812 75.51125 86 76 C86.52057795 76.44462648 87.04115589 76.88925297 87.57750893 77.34735298 C90.09172948 80.26836892 89.41426908 84.17322807 89.38818359 87.85498047 C89.39606903 89.21419868 89.39606903 89.21419868 89.40411377 90.60087585 C89.41734952 93.60648698 89.40855566 96.61157063 89.3984375 99.6171875 C89.40045896 101.71168113 89.403371 103.80617406 89.40713501 105.90066528 C89.41156465 110.30070668 89.40511317 114.70056571 89.39111328 119.10058594 C89.37412643 124.70998835 89.38379152 130.31895679 89.40183067 135.92834282 C89.41274152 140.26096786 89.40918709 144.59349246 89.4014473 148.92612076 C89.3994599 150.99194516 89.40185265 153.05777899 89.40888596 155.12359238 C89.48587184 184.12526556 89.48587184 184.12526556 80 196 C79.39027344 196.83273437 78.78054688 197.66546875 78.15234375 198.5234375 C75.79689171 201.23370355 73.58893473 202.80651423 70.5 204.625 C69.5615625 205.19476563 68.623125 205.76453125 67.65625 206.3515625 C56.22910277 211.95417686 44.13057184 211.36668359 31.75 211.1875 C29.92579235 211.17241988 28.10157258 211.15873739 26.27734375 211.14648438 C21.85125813 211.11375617 17.42576611 211.06215964 13 211 C12.83255573 207.93263148 12.71019794 204.87441536 12.61328125 201.8046875 C12.56143677 200.93932373 12.50959229 200.07395996 12.45617676 199.18237305 C12.30705922 192.88931152 12.30705922 192.88931152 14.28251648 190.35403442 C16.87800893 188.25700949 19.63062842 186.92705936 22.66796875 185.5703125 C26.30672829 183.85544575 28.33115815 181.97767156 31 179 C31.53625 178.4121875 32.0725 177.824375 32.625 177.21875 C41.02581274 166.71773408 43.40477429 155.1068092 42 142 C39.88306327 131.37795862 34.80950533 122.46211025 26 116.0625 C15.4813153 109.28910455 4.40750245 107.63154715 -8 109 C-19.62916592 111.88552566 -28.73124849 117.75049827 -35 128 C-40.72831779 139.10891021 -41.825018 150.66206183 -38.4375 162.75 C-33.27551562 177.4418017 -24.43219264 184.96408957 -11 192 C-11 198.27 -11 204.54 -11 211 C-16.76254445 211.09244724 -22.52245766 211.1718954 -28.28515625 211.21972656 C-30.24032366 211.23969039 -32.19543255 211.26687136 -34.15039062 211.30175781 C-50.41895667 211.58454475 -63.44433701 210.52748271 -76 199 C-84.80915099 188.70923678 -87.09313973 178.82189216 -87.25634766 165.53564453 C-87.27095032 164.61273621 -87.28555298 163.68982788 -87.30059814 162.73895264 C-87.42608258 154.27345752 -87.49525626 145.80708202 -87.54844093 137.34085274 C-87.58425221 131.66322653 -87.63773624 125.98701129 -87.73388672 120.31005859 C-87.82684199 114.80346867 -87.87537954 109.29812818 -87.89283371 103.79079819 C-87.90689414 101.69917498 -87.93645699 99.6075939 -87.98213577 97.51642227 C-88.32127244 81.2013136 -88.32127244 81.2013136 -85.06829834 75.78167725 C-82.82720572 73.50712094 -80.65041406 71.76524954 -78 70 C-76.71521088 68.8909647 -75.44178539 67.76842054 -74.1875 66.625 C-73.54167969 66.07070312 -72.89585937 65.51640625 -72.23046875 64.9453125 C-69.44134071 62.512763 -66.72085792 60.00817859 -64 57.5 C-60.04163808 53.85557925 -56.04822522 50.26085659 -51.984375 46.734375 C-47.94626738 43.20500535 -43.98025811 39.59429369 -40 36 C-30.5078125 27.42826705 -30.5078125 27.42826705 -26.125 23.625 C-22.16491195 20.17795979 -18.30568221 16.62367371 -14.44433594 13.06713867 C-10.85351205 9.76562015 -7.21641363 6.5263991 -3.5234375 3.33984375 C-2.30827165 2.27112096 -1.1442894 1.1442894 0 0 Z " fill="#02411C" transform="translate(255,166)"/>
<path d="M0 0 C5.55955544 1.70481836 9.45703099 5.87265871 13.5859375 9.79296875 C14.76018761 10.87666144 15.93603775 11.95862236 17.11328125 13.0390625 C19.5430078 15.276789 21.95971151 17.52742367 24.3671875 19.7890625 C27.38377604 22.61667884 30.46748327 25.35348898 33.59765625 28.0546875 C36.12646678 30.26553364 38.60466314 32.52893318 41.0859375 34.79296875 C44.24855307 37.67716975 47.42034238 40.5447435 50.6484375 43.35546875 C53.78703049 46.09034231 56.91294907 48.83863202 60.0234375 51.60546875 C60.86777344 52.35441406 61.71210938 53.10335937 62.58203125 53.875 C65.53310598 56.69951791 65.80403373 58.56002687 65.9609375 62.54296875 C65.93413131 66.24758447 65.62563012 68.45231209 63.2734375 71.35546875 C59.5444359 74.73758648 56.07830794 75.45816827 51.1640625 75.37890625 C45.57467739 74.10859145 41.65609812 69.60997403 37.5859375 65.79296875 C36.48413173 64.78399879 35.38123531 63.77621876 34.27734375 62.76953125 C32.03314234 60.71480702 29.8014244 58.64762597 27.578125 56.5703125 C24.67023826 53.85900253 21.69172366 51.24000689 18.68359375 48.640625 C15.3960881 45.74492635 12.18380007 42.76649812 8.97241211 39.78686523 C5.59788433 36.67021992 2.13309993 33.70858891 -1.4140625 30.79296875 C-5.15328379 32.37427495 -7.71055987 34.72527273 -10.6640625 37.48046875 C-13.88055455 40.45807015 -17.09980431 43.42380722 -20.4140625 46.29296875 C-23.62305494 49.08110973 -26.77322694 51.9282506 -29.9140625 54.79296875 C-38.03449485 62.1873652 -38.03449485 62.1873652 -41.39453125 65.0546875 C-42.88432758 66.33700736 -44.34072917 67.6583682 -45.77734375 69 C-49.88898196 72.65123704 -53.02770811 75.31772693 -58.6640625 75.60546875 C-63.66567591 75.18801125 -66.04600925 73.42010302 -69.4140625 69.79296875 C-71.31747588 65.98614198 -71.13147499 61.92113048 -70.4140625 57.79296875 C-68.57936765 54.57929358 -66.13399016 52.27532697 -63.4140625 49.79296875 C-62.61871094 49.05046875 -61.82335937 48.30796875 -61.00390625 47.54296875 C-58.50436465 45.2559075 -55.9697152 43.0170336 -53.4140625 40.79296875 C-52.74375 40.20773438 -52.0734375 39.6225 -51.3828125 39.01953125 C-50.10358078 37.90282487 -48.823623 36.78694971 -47.54296875 35.671875 C-44.97518264 33.40562707 -42.44459339 31.10072938 -39.9140625 28.79296875 C-36.12668406 25.33900464 -32.30958534 21.92875387 -28.4375 18.5703125 C-26.08931737 16.50771965 -23.78547126 14.39940397 -21.4765625 12.29296875 C-19.79005728 10.79185037 -18.10257945 9.29182389 -16.4140625 7.79296875 C-15.65996094 7.09042969 -14.90585938 6.38789063 -14.12890625 5.6640625 C-9.67211855 1.77321609 -6.05679462 -0.49386172 0 0 Z " fill="#F4F4EC" transform="translate(258.4140625,174.20703125)"/>
<path d="M0 0 C0.70055203 -0.00367669 1.40110405 -0.00735338 2.12288493 -0.01114148 C4.48197028 -0.02219818 6.84101161 -0.0260255 9.20011902 -0.02983093 C10.8868626 -0.03609405 12.57360479 -0.04274072 14.26034546 -0.04974365 C18.85132061 -0.06716667 23.44228534 -0.07770881 28.03328538 -0.08594918 C30.90009827 -0.09109625 33.7669079 -0.0971721 36.63371849 -0.10346031 C45.59903822 -0.12251545 54.5643497 -0.13674627 63.5296858 -0.14507228 C73.88669497 -0.15484892 84.24349066 -0.1811782 94.60042459 -0.22157317 C102.60047871 -0.25170747 110.60047155 -0.26653857 118.60058135 -0.26985329 C123.3811948 -0.27220673 128.16158026 -0.28120519 132.94213295 -0.30631447 C137.43931725 -0.32955349 141.93612279 -0.33384533 146.43335152 -0.32355309 C148.08413704 -0.32305661 149.73494095 -0.32941003 151.38566971 -0.34310913 C153.63948647 -0.36076692 155.89193489 -0.35375352 158.14575195 -0.34057617 C159.4069325 -0.34296453 160.66811304 -0.34535288 161.96751118 -0.34781361 C165.88116647 0.23995736 167.52428092 1.33206052 170.26335144 4.14717102 C171.32585144 7.52217102 171.32585144 7.52217102 171.26335144 11.14717102 C168.32664258 16.61552545 168.32664258 16.61552545 165.26335144 18.14717102 C163.01968749 18.25251059 160.77281634 18.29113821 158.52670288 18.30107117 C157.47587484 18.30764455 157.47587484 18.30764455 156.40381795 18.31435072 C154.04473726 18.32775818 151.68569393 18.33392191 149.32658386 18.34004211 C147.63983999 18.3479415 145.95309781 18.35621035 144.26635742 18.36482239 C138.71719481 18.39105965 133.16802457 18.4063509 127.61882019 18.42060852 C125.7102082 18.42596734 123.80159627 18.43134485 121.89298439 18.43674088 C113.95536421 18.45837136 106.01774608 18.47710918 98.08010387 18.48836327 C86.69533886 18.50460967 75.31091477 18.53780222 63.92627829 18.59476411 C55.92622594 18.63343036 47.9262649 18.65299197 39.92612153 18.65828383 C35.14544953 18.66194162 30.36514099 18.67400813 25.58456993 18.70638657 C21.0873285 18.73640926 16.59067156 18.74279992 12.09335136 18.73100281 C10.4425565 18.73078159 8.79173497 18.73912651 7.14103317 18.75665665 C4.88696589 18.77929184 2.63502828 18.77108253 0.38095093 18.75517273 C-1.51081989 18.76013795 -1.51081989 18.76013795 -3.4408083 18.76520348 C-7.60464629 17.98440501 -9.05790541 16.34056307 -11.73664856 13.14717102 C-12.06664856 12.81717102 -12.39664856 12.48717102 -12.73664856 12.14717102 C-13.17449398 8.29413134 -13.04250108 6.6059498 -10.86164856 3.33467102 C-7.31445691 -0.3168498 -4.9946367 0.0169394 0 0 Z " fill="#D1AF38" transform="translate(176.7366485595703,415.8528289794922)"/>
<path d="M0 0 C0.33 0 0.66 0 1 0 C1 33.33 1 66.66 1 101 C-32.66 101 -66.32 101 -101 101 C-101 100.67 -101 100.34 -101 100 C-100.04222656 99.84144531 -99.08445312 99.68289063 -98.09765625 99.51953125 C-75.68622662 95.66423005 -56.73337768 88.59775815 -39 74 C-38.22527344 73.38898438 -37.45054687 72.77796875 -36.65234375 72.1484375 C-17.02152518 55.87597766 -5.02435511 30.75412673 -1 6 C-0.81050781 4.86691406 -0.62101562 3.73382813 -0.42578125 2.56640625 C-0.28527344 1.71949219 -0.14476562 0.87257813 0 0 Z " fill="#F5F6F6" transform="translate(511,411)"/>
<path d="M0 0 C33 0 66 0 100 0 C100 32.67 100 65.34 100 99 C99.67 99 99.34 99 99 99 C98.78085937 97.80246094 98.56171875 96.60492188 98.3359375 95.37109375 C96.29024333 84.67427824 93.67319164 74.89057632 89 65 C88.70077637 64.36578125 88.40155273 63.7315625 88.09326172 63.078125 C83.75587361 54.07472467 78.66324166 46.502054 72 39 C71.37609375 38.23300781 70.7521875 37.46601562 70.109375 36.67578125 C52.33988085 15.2851927 26.27752707 6.50175772 0 1 C0 0.67 0 0.34 0 0 Z " fill="#F5F6F6" transform="translate(412,0)"/>
<path d="M0 0 C0.33 0 0.66 0 1 0 C1.21914063 1.26972656 1.43828125 2.53945313 1.6640625 3.84765625 C3.65960168 14.88669454 6.21162403 24.79819198 11 35 C11.2779541 35.60618164 11.5559082 36.21236328 11.84228516 36.83691406 C20.82002021 56.13068007 35.53378385 72.420397 54 83 C54.56203125 83.32742188 55.1240625 83.65484375 55.703125 83.9921875 C71.18831617 92.94666761 86.37013988 96.79850478 104 99 C104 99.33 104 99.66 104 100 C69.68 100 35.36 100 0 100 C0 67 0 34 0 0 Z " fill="#F5F6F6" transform="translate(0,412)"/>
<path d="M0 0 C32.67 0 65.34 0 99 0 C99 0.33 99 0.66 99 1 C98.41734375 1.11480713 97.8346875 1.22961426 97.234375 1.34790039 C75.12253226 5.79590964 56.38371642 13.17779146 39 28 C38.26265625 28.59167969 37.5253125 29.18335937 36.765625 29.79296875 C15.87464531 47.16507775 5.55589837 72.886924 1 99 C0.67 99 0.34 99 0 99 C0 66.33 0 33.66 0 0 Z " fill="#F5F6F6" transform="translate(0,0)"/>
<path d="M0 0 C2.94645992 1.31731577 4.87836004 2.6996069 7.0625 5.0625 C10.01249156 8.11377882 13.124289 10.78509562 16.4375 13.4375 C20.59736851 16.7847166 24.39447154 20.28105389 28.11328125 24.10546875 C30.58999361 26.59243665 33.21676421 28.870543 35.875 31.16015625 C40.84872679 35.46645279 45.69560525 39.91906171 50.578125 44.328125 C55.680962 48.93007003 60.81726902 53.48833976 66 58 C67.50031934 59.31213495 69.00032601 60.62462751 70.5 61.9375 C71.50546875 62.81728516 71.50546875 62.81728516 72.53125 63.71484375 C73.0159375 64.13894531 73.500625 64.56304687 74 65 C73.01 65.33 72.02 65.66 71 66 C70.67 68.64 70.34 71.28 70 74 C69.67 74 69.34 74 69 74 C68.93828613 73.36151123 68.87657227 72.72302246 68.81298828 72.06518555 C67.79082776 64.7926424 65.43176436 61.44615585 59.875 56.8125 C58.85176636 55.91108276 58.85176636 55.91108276 57.80786133 54.99145508 C55.88872672 53.3068025 53.94771988 51.65140926 52 50 C50.56107989 48.73077483 49.123189 47.46037891 47.6875 46.1875 C47.09066406 45.67316406 46.49382812 45.15882813 45.87890625 44.62890625 C40.98975358 40.39028533 36.22407526 36.00840736 31.421875 31.671875 C24.78997718 25.66407655 24.78997718 25.66407655 18.0546875 19.7734375 C16.55272483 18.47706668 15.08278793 17.14332999 13.6328125 15.7890625 C9.71916593 12.31432956 6.40219525 9.46216102 1.0625 8.9375 C-5.81798866 9.57953627 -10.21185804 14.45375974 -15 19 C-16.17425011 20.08369269 -17.35010025 21.16565361 -18.52734375 22.24609375 C-20.95570188 24.48258562 -23.37114057 26.73188532 -25.77734375 28.9921875 C-28.82061941 31.8447641 -31.92944134 34.6092621 -35.0859375 37.3359375 C-39.10828181 40.83291439 -43.04438979 44.42796411 -47 48 C-48.70783099 49.54222314 -50.41615804 51.08389713 -52.125 52.625 C-52.94226563 53.37136719 -53.75953125 54.11773437 -54.6015625 54.88671875 C-57 57 -57 57 -59.3359375 58.76953125 C-64.42907704 62.69510992 -66.00331316 65.65026282 -66.84375 72.05859375 C-66.8953125 72.69925781 -66.946875 73.33992188 -67 74 C-67.33 74 -67.66 74 -68 74 C-68.12117187 73.43410156 -68.24234375 72.86820312 -68.3671875 72.28515625 C-68.61855469 71.18494141 -68.61855469 71.18494141 -68.875 70.0625 C-69.03742188 69.33160156 -69.19984375 68.60070312 -69.3671875 67.84765625 C-69.82961523 65.79299706 -69.82961523 65.79299706 -72 65 C-57.95894028 51.88580799 -57.95894028 51.88580799 -51.9140625 46.6640625 C-47.89171819 43.16708561 -43.95561021 39.57203589 -40 36 C-30.5078125 27.42826705 -30.5078125 27.42826705 -26.125 23.625 C-22.16491195 20.17795979 -18.30568221 16.62367371 -14.44433594 13.06713867 C-10.85351205 9.76562015 -7.21641363 6.5263991 -3.5234375 3.33984375 C-2.30827165 2.27112096 -1.1442894 1.1442894 0 0 Z " fill="#214930" transform="translate(255,166)"/>
<path d="M0 0 C1.05294474 -0.00445668 1.05294474 -0.00445668 2.12716109 -0.0090034 C4.49091899 -0.01770921 6.85462636 -0.01920022 9.21839905 -0.02069092 C10.90838734 -0.0253177 12.59837458 -0.03034217 14.2883606 -0.03573608 C18.88747007 -0.04887407 23.48656494 -0.05530755 28.08569026 -0.05974674 C30.95650795 -0.06267471 33.82732161 -0.06677895 36.69813728 -0.07125092 C45.67306625 -0.08492842 54.64798607 -0.09459431 63.62292475 -0.09845281 C73.99689506 -0.10293684 84.37073383 -0.12049969 94.74466413 -0.1494534 C102.75487889 -0.17103714 110.76505654 -0.18115528 118.77530009 -0.18249393 C123.5636297 -0.18354417 128.35183571 -0.18949856 133.14013481 -0.20731354 C137.64219211 -0.22373755 142.14403213 -0.2259775 146.64610863 -0.21717453 C148.30095245 -0.21640115 149.95580769 -0.22078629 151.61062241 -0.23063278 C153.8649447 -0.24326276 156.1184869 -0.2375252 158.37280273 -0.22705078 C159.63582686 -0.22851734 160.89885099 -0.2299839 162.20014858 -0.2314949 C165.24989319 0.14044189 165.24989319 0.14044189 167.17971134 1.66341019 C167.53287135 2.15083065 167.88603136 2.63825111 168.24989319 3.14044189 C166.92989319 3.14044189 165.60989319 3.14044189 164.24989319 3.14044189 C164.24989319 2.48044189 164.24989319 1.82044189 164.24989319 1.14044189 C108.47989319 1.47044189 52.70989319 1.80044189 -4.75010681 2.14044189 C-5.08010681 2.80044189 -5.41010681 3.46044189 -5.75010681 4.14044189 C-7.81260681 4.76544189 -7.81260681 4.76544189 -9.75010681 5.14044189 C-10.74010681 8.60544189 -10.74010681 8.60544189 -11.75010681 12.14044189 C-12.08010681 12.14044189 -12.41010681 12.14044189 -12.75010681 12.14044189 C-13.10682615 8.30570905 -13.04782098 6.58701314 -10.87510681 3.32794189 C-7.32359937 -0.32802165 -5.00071183 0.01178115 0 0 Z " fill="#B9B354" transform="translate(176.75010681152344,415.85955810546875)"/>
<path d="M0 0 C0.99 0.33 1.98 0.66 3 1 C3 1.66 3 2.32 3 3 C7.0307296 3.95611873 10.80346085 4.13645697 14.9412384 4.15821838 C15.97057646 4.16562535 15.97057646 4.16562535 17.02070922 4.17318195 C19.31303882 4.18850235 21.60534053 4.1969027 23.89770508 4.20532227 C25.54374434 4.21490509 27.18978116 4.2249154 28.83581543 4.23532104 C33.30023737 4.26233241 37.76466984 4.28336236 42.22912812 4.30332303 C46.89631708 4.32520584 51.56347372 4.3525833 56.2306366 4.37937927 C65.06673623 4.42927512 73.90285383 4.47422548 82.73898858 4.51740164 C92.79939394 4.56680057 102.85976688 4.62170885 112.92014086 4.67708123 C133.61339702 4.79085357 154.30668415 4.89770295 175 5 C175 4.34 175 3.68 175 3 C176.32 3 177.64 3 179 3 C179 2.34 179 1.68 179 1 C179.66 1 180.32 1 181 1 C179.25 4.875 179.25 4.875 177 6 C174.75633605 6.10533957 172.5094649 6.14396719 170.26335144 6.15390015 C169.2125234 6.16047353 169.2125234 6.16047353 168.14046651 6.1671797 C165.78138582 6.18058716 163.42234249 6.18675089 161.06323242 6.19287109 C159.37648855 6.20077048 157.68974637 6.20903933 156.00300598 6.21765137 C150.45384337 6.24388863 144.90467313 6.25917988 139.35546875 6.2734375 C137.44685676 6.27879632 135.53824483 6.28417383 133.62963295 6.28956985 C125.69201277 6.31120034 117.75439464 6.32993816 109.81675243 6.34119225 C98.43198742 6.35743865 87.04756333 6.3906312 75.66292685 6.44759309 C67.6628745 6.48625934 59.66291346 6.50582095 51.66277009 6.51111281 C46.88209809 6.5147706 42.10178955 6.52683711 37.32121849 6.55921555 C32.82397706 6.58923824 28.32732012 6.5956289 23.82999992 6.58383179 C22.17920506 6.58361057 20.52838353 6.59195549 18.87768173 6.60948563 C16.62361445 6.63212082 14.37167684 6.62391151 12.11759949 6.60800171 C10.22582867 6.61296693 10.22582867 6.61296693 8.29584026 6.61803246 C4.13611069 5.8380044 2.63199186 4.23307937 0 1 C0 0.67 0 0.34 0 0 Z " fill="#BAB354" transform="translate(165,428)"/>
<path d="M0 0 C0.33 0 0.66 0 1 0 C1.2475 1.0725 1.495 2.145 1.75 3.25 C3.05865461 7.17596382 3.76722257 8.53703026 7 11 C10.27267361 11.60701793 10.27267361 11.60701793 14.01080322 11.51898193 C15.06948628 11.53023381 15.06948628 11.53023381 16.14955688 11.541713 C18.51439118 11.56201207 20.8782687 11.55388371 23.24316406 11.54589844 C24.93832346 11.5546323 26.63347462 11.56511742 28.32861328 11.57722473 C32.93160077 11.60512845 37.53431985 11.60848846 42.13737965 11.60750484 C46.94742179 11.6106302 51.75734236 11.63624051 56.56732178 11.65948486 C65.67617373 11.70007739 74.78495403 11.72039321 83.89388251 11.73345876 C94.26385442 11.74931779 104.63370422 11.78772878 115.00360537 11.82805204 C136.33569665 11.9104955 157.66778225 11.96455982 179 12 C179 12.33 179 12.66 179 13 C156.39963433 13.11675773 133.79931834 13.20495117 111.19871235 13.25906086 C100.70504492 13.28485179 90.21156479 13.32001939 79.71801758 13.37719727 C70.57273602 13.42700491 61.42759009 13.45928454 52.28217667 13.47044247 C47.43886063 13.4769657 42.59593263 13.4923156 37.75274086 13.52865028 C33.19481244 13.56256807 28.63743221 13.57306152 24.07938957 13.56553841 C22.40601244 13.56691485 20.73261713 13.57687269 19.05934906 13.59602737 C16.77455366 13.62090127 14.49182861 13.61492814 12.20698547 13.60127258 C10.9284586 13.60588155 9.64993174 13.61049051 8.33266163 13.61523914 C4.12048608 12.83763386 2.63832411 11.30071054 0 8 C-0.62296556 5.14432587 -0.25085388 2.96007574 0 0 Z " fill="#193B01" transform="translate(163,422)"/>
<path d="M0 0 C2.62187494 1.04874998 3.79371361 1.64931313 5.25 4.125 C5.4975 4.74375 5.745 5.3625 6 6 C4 8 4 8 0.5625 8.5625 C-4.87683136 9.76791959 -8.46639016 13.33046028 -12.58203125 16.90625 C-15 19 -15 19 -18 21 C-18 17 -18 17 -16.53125 15.10546875 C-15.8609375 14.47253906 -15.190625 13.83960938 -14.5 13.1875 C-13.77554688 12.49785156 -13.05109375 11.80820313 -12.3046875 11.09765625 C-9.45804178 8.50672616 -6.5874496 5.94940902 -3.6640625 3.4453125 C-2.39833536 2.34597202 -1.1854566 1.1854566 0 0 Z " fill="#114124" transform="translate(255,166)"/>
<path d="M0 0 C0.66 0.33 1.32 0.66 2 1 C2.04644327 13.21373822 2.08193004 25.42745525 2.10362434 37.64126396 C2.11403914 43.31328334 2.12815617 48.98524208 2.15087891 54.65722656 C2.17268955 60.13613604 2.18458594 65.61498736 2.18975449 71.09393692 C2.19343551 73.17899617 2.20062348 75.26405242 2.21146011 77.34908676 C2.22608434 80.28080754 2.22797339 83.21229129 2.22705078 86.14404297 C2.23783661 87.42259407 2.23783661 87.42259407 2.24884033 88.72697449 C2.22870394 94.68214782 1.35203444 100.20490196 0 106 C-0.66 105.34 -1.32 104.68 -2 104 C-1.76467896 101.48239136 -1.76467896 101.48239136 -1.13720703 98.19091797 C0.40558475 88.4451857 0.25000636 78.79109834 0.1953125 68.9453125 C0.19157379 66.94750105 0.18873088 64.94968774 0.18673706 62.95187378 C0.17916807 57.74056775 0.15957889 52.52937649 0.1373291 47.31811523 C0.1167241 41.98162386 0.10770427 36.6451136 0.09765625 31.30859375 C0.07632545 20.87234592 0.04227271 10.43618257 0 0 Z " fill="#113B20" transform="translate(342,244)"/>
<path d="M0 0 C0.33 0.99 0.66 1.98 1 3 C0.50497199 3.32404879 0.00994398 3.64809757 -0.50008488 3.98196602 C-4.43410104 6.86411166 -4.43410104 6.86411166 -6.66166496 11.07116318 C-6.89988911 13.5365624 -6.93166778 15.92520911 -6.88647461 18.40185547 C-6.89725037 19.32932083 -6.90802612 20.25678619 -6.91912842 21.21235657 C-6.94644295 24.26478309 -6.92467168 27.31475448 -6.90234375 30.3671875 C-6.91172995 32.48855113 -6.92418843 34.60990321 -6.93959045 36.73123169 C-6.97181815 42.30454378 -6.96237296 47.87703308 -6.94421387 53.45037842 C-6.93305662 59.14148974 -6.96135879 64.8323903 -6.98632812 70.5234375 C-7.02947849 81.68243853 -7.02860017 92.84096831 -7 104 C-7.33 104 -7.66 104 -8 104 C-8.18558163 91.62157904 -8.32761968 79.24349045 -8.41449738 66.86396027 C-8.45620071 61.11518625 -8.51274126 55.36736583 -8.60351562 49.61914062 C-8.69061336 44.06882903 -8.73831065 38.51943298 -8.75901794 32.9684906 C-8.7737691 30.85373016 -8.80257617 28.73901834 -8.84584045 26.62464905 C-9.17247099 9.99646232 -9.17247099 9.99646232 -6.16577148 4.87670898 C-4.20376656 2.89393982 -2.41507695 1.37997062 0 0 Z " fill="#123D22" transform="translate(176,237)"/>
<path d="M0 0 C1 3 1 3 1 6 C-9.23 6 -19.46 6 -30 6 C-30 5.67 -30 5.34 -30 5 C-28.9378125 4.80664062 -27.875625 4.61328125 -26.78125 4.4140625 C-25.35405056 4.15167244 -23.92697492 3.88860839 -22.5 3.625 C-21.76475098 3.48924561 -21.02950195 3.35349121 -20.27197266 3.21362305 C-16.60222332 2.52549418 -12.97970039 1.79495756 -9.375 0.8125 C-6.11190725 0.02694063 -3.34071114 -0.16703556 0 0 Z " fill="#ECF3F0" transform="translate(440,506)"/>
<path d="M0 0 C0.33 0 0.66 0 1 0 C1 9.24 1 18.48 1 28 C-0.65 28.33 -2.3 28.66 -4 29 C-4.99 29.66 -5.98 30.32 -7 31 C-6.81824219 30.45214844 -6.63648438 29.90429688 -6.44921875 29.33984375 C-3.41037928 19.75581156 -1.6115551 9.91258422 0 0 Z " fill="#EEF6F2" transform="translate(511,411)"/>
<path d="M0 0 C2.64 1.32 5.28 2.64 8 4 C8 10.27 8 16.54 8 23 C2.1282206 23.04599305 -3.74292988 23.08579452 -9.61474609 23.10986328 C-11.61086143 23.11990052 -13.60696214 23.1335332 -15.60302734 23.15087891 C-18.47757587 23.17522735 -21.35192941 23.18650605 -24.2265625 23.1953125 C-25.11429352 23.20563507 -26.00202454 23.21595764 -26.91665649 23.22659302 C-31.68884625 23.2274508 -35.51492146 22.85434578 -40 21 C-40 20.67 -40 20.34 -40 20 C-38.741875 19.979375 -37.48375 19.95875 -36.1875 19.9375 C-35.47980469 19.92589844 -34.77210938 19.91429687 -34.04296875 19.90234375 C-32 20 -32 20 -29 21 C-26.50984755 21.0965246 -24.04856785 21.14001211 -21.55859375 21.1328125 C-20.47337181 21.13424759 -20.47337181 21.13424759 -19.3662262 21.13571167 C-17.83895785 21.13639142 -16.3116866 21.13455141 -14.78442383 21.13037109 C-12.44280542 21.12501214 -10.10137813 21.13032695 -7.75976562 21.13671875 C-6.27604124 21.13605808 -4.79231698 21.13477716 -3.30859375 21.1328125 C-2.25544228 21.13584885 -2.25544228 21.13584885 -1.18101501 21.13894653 C2.533854 21.17325226 2.533854 21.17325226 6 20 C6 15.05 6 10.1 6 5 C4.02 4.34 2.04 3.68 0 3 C0 2.01 0 1.02 0 0 Z " fill="#133D22" transform="translate(236,354)"/>
<path d="M0 0 C6.93 0 13.86 0 21 0 C21 0.33 21 0.66 21 1 C20.0867395 1.19577637 20.0867395 1.19577637 19.1550293 1.39550781 C3.28261063 4.70099258 3.28261063 4.70099258 -12 10 C-12 8.68 -12 7.36 -12 6 C-9.36 6 -6.72 6 -4 6 C-4.33 5.01 -4.66 4.02 -5 3 C-3.35 3 -1.7 3 0 3 C0 2.01 0 1.02 0 0 Z " fill="#F1F7F4" transform="translate(78,0)"/>
<path d="M0 0 C0.66 1.32 1.32 2.64 2 4 C0.625 5.5 0.625 5.5 -1 7 C-1.66 7 -2.32 7 -3 7 C-2.34 8.32 -1.68 9.64 -1 11 C-1.9075 11.185625 -2.815 11.37125 -3.75 11.5625 C-7.43289438 13.19147251 -8.29609483 14.70674127 -10.0546875 18.24609375 C-11.31854632 20.59102189 -13.0255912 22.237135 -15 24 C-15.66 23.67 -16.32 23.34 -17 23 C-12.03445928 14.64736859 -6.34424273 7.3143885 0 0 Z " fill="#0A4022" transform="translate(31,34)"/>
<path d="M0 0 C0.33 0 0.66 0 1 0 C1.11593506 0.58491211 1.23187012 1.16982422 1.35131836 1.77246094 C1.87902809 4.4318437 2.40824858 7.09092365 2.9375 9.75 C3.11990234 10.67039062 3.30230469 11.59078125 3.49023438 12.5390625 C3.66748047 13.42851562 3.84472656 14.31796875 4.02734375 15.234375 C4.18968506 16.05131836 4.35202637 16.86826172 4.51928711 17.70996094 C4.96269203 19.82227083 5.46079981 21.910337 6 24 C5.01 24 4.02 24 3 24 C3 23.34 3 22.68 3 22 C2.01 21.67 1.02 21.34 0 21 C0 14.07 0 7.14 0 0 Z " fill="#E8F4EC" transform="translate(0,412)"/>
<path d="M0 0 C7.26 0 14.52 0 22 0 C22 1.65 22 3.3 22 5 C14.5403037 4.25403037 7.31048782 2.63253871 0 1 C0 0.67 0 0.34 0 0 Z " fill="#DFEDE4" transform="translate(412,0)"/>
<path d="M0 0 C3.67167686 0.04782213 5.70251242 0.28238295 8.3125 2.9375 C8.93125 3.7625 9.55 4.5875 10.1875 5.4375 C9.8575 6.0975 9.5275 6.7575 9.1875 7.4375 C6.5475 7.4375 3.9075 7.4375 1.1875 7.4375 C2.1775 5.7875 3.1675 4.1375 4.1875 2.4375 C2.8571875 2.7159375 2.8571875 2.7159375 1.5 3 C-1.66428811 3.41792484 -3.76089642 3.24527742 -6.8125 2.4375 C-4.34214288 -0.03285712 -3.4164993 0.08707719 0 0 Z " fill="#F1F4EA" transform="translate(255.8125,174.5625)"/>
<path d="M0 0 C0.66 0.66 1.32 1.32 2 2 C0.71226848 4.29395893 -0.57996772 6.58516784 -1.875 8.875 C-2.23980469 9.52597656 -2.60460937 10.17695312 -2.98046875 10.84765625 C-4.48660536 13.50393354 -5.83019001 15.83019001 -8 18 C-9 16 -9 16 -8.44140625 13.8359375 C-8.15136719 13.02382813 -7.86132812 12.21171875 -7.5625 11.375 C-7.27503906 10.55773438 -6.98757812 9.74046875 -6.69140625 8.8984375 C-6.46324219 8.27195312 -6.23507812 7.64546875 -6 7 C-5.34 7 -4.68 7 -4 7 C-3.67 6.01 -3.34 5.02 -3 4 C-2.34 4 -1.68 4 -1 4 C-0.67 2.68 -0.34 1.36 0 0 Z " fill="#DFF1E6" transform="translate(18,47)"/>
<path d="M0 0 C2.68763267 0.31139051 5.37510369 0.62408157 8.0625 0.9375 C9.19075195 1.06801758 9.19075195 1.06801758 10.34179688 1.20117188 C14.90588219 1.73463639 19.45393534 2.32986298 24 3 C24 3.33 24 3.66 24 4 C17.4 4 10.8 4 4 4 C3.67 3.34 3.34 2.68 3 2 C2.01 1.34 1.02 0.68 0 0 Z " fill="#DCEDE1" transform="translate(80,508)"/>
<path d="M0 0 C3.81684226 1.55500981 6.19195732 4.03595495 9 7 C8.01 7 7.02 7 6 7 C5.67 7.66 5.34 8.32 5 9 C4.01 8.67 3.02 8.34 2 8 C2 7.01 2 6.02 2 5 C0.35 4.67 -1.3 4.34 -3 4 C-2.01 2.68 -1.02 1.36 0 0 Z " fill="#124526" transform="translate(255,204)"/>
<path d="M0 0 C0 4.05877888 -1.58347892 5.40498116 -4.2109375 8.34375 C-6.97473406 10.90237389 -9.3951506 11.91174358 -13 13 C-13.99 12.67 -14.98 12.34 -16 12 C-15.01257813 11.30132812 -14.02515625 10.60265625 -13.0078125 9.8828125 C-11.7134704 8.96364202 -10.41920347 8.04436567 -9.125 7.125 C-8.47402344 6.66480469 -7.82304687 6.20460938 -7.15234375 5.73046875 C-6.52714844 5.28574219 -5.90195312 4.84101563 -5.2578125 4.3828125 C-4.6817627 3.97434082 -4.10571289 3.56586914 -3.51220703 3.14501953 C-1.84771607 1.93897192 -1.84771607 1.93897192 0 0 Z " fill="#174729" transform="translate(355,363)"/>
<path d="M0 0 C0.66 0.33 1.32 0.66 2 1 C0.84807997 4.4557601 0.08865366 5.19828537 -3 7 C-5.75 7.1875 -5.75 7.1875 -8 7 C-8 7.66 -8 8.32 -8 9 C-9.32 9 -10.64 9 -12 9 C-12 8.34 -12 7.68 -12 7 C-9.4453125 5.23828125 -9.4453125 5.23828125 -6.125 3.3125 C-5.03445313 2.66925781 -3.94390625 2.02601563 -2.8203125 1.36328125 C-1.88960938 0.91339844 -0.95890625 0.46351563 0 0 Z " fill="#E1F0E7" transform="translate(461,493)"/>
<path d="M0 0 C-1.57297914 1.86562642 -2.45510217 2.90238443 -4.90112305 3.34057617 C-5.59761963 3.32486572 -6.29411621 3.30915527 -7.01171875 3.29296875 C-7.76904297 3.28330078 -8.52636719 3.27363281 -9.30664062 3.26367188 C-10.48516602 3.2259668 -10.48516602 3.2259668 -11.6875 3.1875 C-12.88342773 3.16719727 -12.88342773 3.16719727 -14.10351562 3.14648438 C-16.06929967 3.11117089 -18.03473582 3.05736447 -20 3 C-20 2.67 -20 2.34 -20 2 C-17.41842632 1.46867611 -14.83538244 0.94965621 -12.25 0.4375 C-11.52039063 0.28603516 -10.79078125 0.13457031 -10.0390625 -0.02148438 C-6.33442927 -0.74557178 -3.60677678 -1.09817231 0 0 Z " fill="#DDEDE2" transform="translate(430,509)"/>
<path d="M0 0 C5.09885387 3.64943348 9.77383466 7.35121812 14 12 C14 12.66 14 13.32 14 14 C12.35 13.67 10.7 13.34 9 13 C8.7525 12.05125 8.505 11.1025 8.25 10.125 C7.32864702 6.94730532 7.32864702 6.94730532 5.0625 5.75 C4.381875 5.5025 3.70125 5.255 3 5 C2.01 4.34 1.02 3.68 0 3 C0 2.01 0 1.02 0 0 Z " fill="#E0F1E1" transform="translate(309,218)"/>
<path d="M0 0 C0.33 0.99 0.66 1.98 1 3 C-0.36328125 5.26171875 -0.36328125 5.26171875 -2.3125 7.6875 C-2.94800781 8.49574219 -3.58351563 9.30398438 -4.23828125 10.13671875 C-5.11033203 11.05904297 -5.11033203 11.05904297 -6 12 C-6.66 12 -7.32 12 -8 12 C-8.33 12.66 -8.66 13.32 -9 14 C-9.99 13.67 -10.98 13.34 -12 13 C-11.38511719 12.39671875 -10.77023437 11.7934375 -10.13671875 11.171875 C-9.32847656 10.37265625 -8.52023437 9.5734375 -7.6875 8.75 C-6.88699219 7.96109375 -6.08648437 7.1721875 -5.26171875 6.359375 C-3.31256349 4.32605933 -1.62578594 2.29398922 0 0 Z " fill="#1E4D2F" transform="translate(374,344)"/>
<path d="M0 0 C0.68707555 2.49064888 1 4.37886292 1 7 C0.34 7 -0.32 7 -1 7 C-1.268125 7.598125 -1.53625 8.19625 -1.8125 8.8125 C-2.99917406 10.99847854 -4.09599113 12.41332594 -6 14 C-6.66 14 -7.32 14 -8 14 C-6.46162154 10.80375738 -4.71133468 7.78394426 -2.875 4.75 C-2.33617187 3.85796875 -1.79734375 2.9659375 -1.2421875 2.046875 C-0.62730469 1.03367187 -0.62730469 1.03367187 0 0 Z " fill="#1A482C" transform="translate(294,333)"/>
<path d="M0 0 C-2.52788007 2.79872437 -4.20411134 4.45773019 -8 5 C-8.99 8.465 -8.99 8.465 -10 12 C-10.33 12 -10.66 12 -11 12 C-11.35671933 8.16526716 -11.29771416 6.44657125 -9.125 3.1875 C-6.01246274 -0.01658248 -4.3473048 -0.11440276 0 0 Z " fill="#ACA445" transform="translate(175,416)"/>
<path d="M0 0 C4.8274799 1.41292095 8.7162359 3.42974154 13 6 C9.41563853 7.19478716 7.63093708 6.96330984 4 6 C1.625 4.0625 1.625 4.0625 0 2 C0 1.34 0 0.68 0 0 Z " fill="#DDF0E5" transform="translate(50,494)"/>
<path d="M0 0 C0.33 0 0.66 0 1 0 C1.10823773 2.24893954 1.18569645 4.49937575 1.25 6.75 C1.29640625 8.00296875 1.3428125 9.2559375 1.390625 10.546875 C1 14 1 14 -3 18 C-2.01 12.06 -1.02 6.12 0 0 Z " fill="#D8EDDF" transform="translate(511,411)"/>
<path d="M0 0 C2.3125 0.1875 2.3125 0.1875 4 1 C3.3125 2.9375 3.3125 2.9375 2 5 C-0.87939419 5.93580311 -2.25509788 6.37245106 -5 5 C-2.75 2.4375 -2.75 2.4375 0 0 Z " fill="#144829" transform="translate(249,209)"/>
<path d="M0 0 C0 3.80845564 -0.97798569 5.79266696 -3 9 C-5.6875 9.875 -5.6875 9.875 -8 10 C-5.61820737 6.25718301 -3.25524265 3.02272532 0 0 Z " fill="#DFECDD" transform="translate(144,140)"/>
<path d="M0 0 C3.3 1.65 6.6 3.3 10 5 C10 5.66 10 6.32 10 7 C8.02 7 6.04 7 4 7 C4.33 6.01 4.66 5.02 5 4 C3.68 4 2.36 4 1 4 C0.67 2.68 0.34 1.36 0 0 Z " fill="#E1F0E2" transform="translate(331,112)"/>
<path d="M0 0 C1 4 1 4 0.3125 6 C-1.20988656 8.31982713 -2.97571423 10.11066661 -5 12 C-5.66 11.67 -6.32 11.34 -7 11 C-4.69 7.37 -2.38 3.74 0 0 Z " fill="#1F4B32" transform="translate(21,46)"/>
<path d="M0 0 C4.62 0 9.24 0 14 0 C9.87272638 2.06363681 6.73160349 2.42167583 2.25 2.625 C1.20392578 2.68300781 1.20392578 2.68300781 0.13671875 2.7421875 C-1.57510818 2.83598624 -3.28751682 2.91906174 -5 3 C-5 2.67 -5 2.34 -5 2 C-3.35 2 -1.7 2 0 2 C0 1.34 0 0.68 0 0 Z " fill="#366348" transform="translate(408,509)"/>
<path d="M0 0 C0.66 0.33 1.32 0.66 2 1 C0.625 3 0.625 3 -1 5 C-1.66 5 -2.32 5 -3 5 C-3 6.98 -3 8.96 -3 11 C-3.33 11 -3.66 11 -4 11 C-4 9.35 -4 7.7 -4 6 C-4.66 6 -5.32 6 -6 6 C-6 4.68 -6 3.36 -6 2 C-4.7934375 1.7834375 -4.7934375 1.7834375 -3.5625 1.5625 C-1.07896294 1.25864751 -1.07896294 1.25864751 0 0 Z " fill="#0C4012" transform="translate(166,417)"/>
<path d="M0 0 C0.66 0.33 1.32 0.66 2 1 C0.4169423 5.2742558 -2.50568404 7.26531794 -6 10 C-6.66 9.67 -7.32 9.34 -8 9 C-6.85459775 7.68712379 -5.70866567 6.37470979 -4.5625 5.0625 C-3.92441406 4.33160156 -3.28632813 3.60070312 -2.62890625 2.84765625 C-1.77458541 1.87860647 -0.91348825 0.91348825 0 0 Z " fill="#D6E6D6" transform="translate(229,282)"/>
<path d="M0 0 C1.48199902 0.44909061 2.96055236 0.90956564 4.4375 1.375 C5.26121094 1.63023438 6.08492188 1.88546875 6.93359375 2.1484375 C9 3 9 3 10 5 C8.4375 5.75 8.4375 5.75 6 6 C3.49713591 4.86915563 1.32992278 3.47860484 -1 2 C-0.67 1.34 -0.34 0.68 0 0 Z " fill="#DDEDE3" transform="translate(450,10)"/>
<path d="M0 0 C1.109375 3.7421875 1.109375 3.7421875 0.125 6.0625 C-0.24625 6.701875 -0.6175 7.34125 -1 8 C-1.33 8.99 -1.66 9.98 -2 11 C-4.0625 12.1875 -4.0625 12.1875 -6 13 C-4.31326082 8.50202887 -2.18326108 4.27113698 0 0 Z " fill="#DAECE0" transform="translate(502,445)"/>
<path d="M0 0 C0.66 0 1.32 0 2 0 C1.01 3.96 0.02 7.92 -1 12 C-1.33 12 -1.66 12 -2 12 C-2.05422947 10.5629191 -2.09289723 9.12524538 -2.125 7.6875 C-2.14820313 6.88699219 -2.17140625 6.08648437 -2.1953125 5.26171875 C-2 3 -2 3 0 0 Z " fill="#225035" transform="translate(508,422)"/>
<path d="M0 0 C1.65 1.65 3.3 3.3 5 5 C4.01 5 3.02 5 2 5 C1.67 7.64 1.34 10.28 1 13 C0.67 13 0.34 13 0 13 C0 8.71 0 4.42 0 0 Z " fill="#2D573C" transform="translate(324,227)"/>
<path d="M0 0 C1.3303125 0.00773438 1.3303125 0.00773438 2.6875 0.015625 C3.574375 0.01046875 4.46125 0.0053125 5.375 0 C7.6875 0.265625 7.6875 0.265625 9.6875 2.265625 C8.6975 2.265625 7.7075 2.265625 6.6875 2.265625 C5.264375 2.5440625 5.264375 2.5440625 3.8125 2.828125 C0.73577522 3.25886647 -1.33692718 3.05327663 -4.3125 2.265625 C-2.3125 0.265625 -2.3125 0.265625 0 0 Z " fill="#E1F0E0" transform="translate(253.3125,174.734375)"/>
<path d="M0 0 C0.99 0.33 1.98 0.66 3 1 C2.67 1.99 2.34 2.98 2 4 C-0.06640625 4.94921875 -0.06640625 4.94921875 -2.5625 5.6875 C-3.38878906 5.93886719 -4.21507812 6.19023437 -5.06640625 6.44921875 C-5.70449219 6.63097656 -6.34257812 6.81273437 -7 7 C-4.66666667 4.66666667 -2.33333333 2.33333333 0 0 Z " fill="#E2F0E1" transform="translate(164,122)"/>
<path d="M0 0 C2.32472205 2.85306797 3.7508258 5.54074837 5 9 C4.01 9.66 3.02 10.32 2 11 C0.80712589 7.12315913 0 4.08378077 0 0 Z " fill="#E2F2E8" transform="translate(11,449)"/>
<path d="M0 0 C3.36720387 1.39332574 4.9859524 2.9789286 7 6 C5.68 6 4.36 6 3 6 C0.75 3.5 0.75 3.5 -1 1 C-0.67 0.67 -0.34 0.34 0 0 Z " fill="#133C22" transform="translate(279,188)"/>
<path d="M0 0 C1.32 0.33 2.64 0.66 4 1 C0.535 3.97 0.535 3.97 -3 7 C-3 3 -3 3 -1.75 1.1875 C-1.1725 0.795625 -0.595 0.40375 0 0 Z " fill="#133E23" transform="translate(240,180)"/>
<path d="M0 0 C0 0.66 0 1.32 0 2 C-0.66 2 -1.32 2 -2 2 C-2.33 2.99 -2.66 3.98 -3 5 C-6.5625 6.1875 -6.5625 6.1875 -10 7 C-10 6.34 -10 5.68 -10 5 C-8.3203125 3.7109375 -8.3203125 3.7109375 -6.125 2.375 C-5.40570313 1.92898437 -4.68640625 1.48296875 -3.9453125 1.0234375 C-2 0 -2 0 0 0 Z " fill="#DEF0E0" transform="translate(183,111)"/>
<path d="M0 0 C0 0.99 0 1.98 0 3 C-0.66 3 -1.32 3 -2 3 C-2.66 4.32 -3.32 5.64 -4 7 C-5.65 7 -7.3 7 -9 7 C-6.24479785 4.04070881 -3.53372712 1.96318174 0 0 Z " fill="#1C472E" transform="translate(57,14)"/>
<path d="M0 0 C1.32 0 2.64 0 4 0 C2.5361389 4.39158329 0.02168662 4.87947433 -4 7 C-4 6.01 -4 5.02 -4 4 C-3.34 4 -2.68 4 -2 4 C-1.34 2.68 -0.68 1.36 0 0 Z " fill="#124328" transform="translate(467,485)"/>
<path d="M0 0 C0.99 0.99 1.98 1.98 3 3 C1.8125 5 1.8125 5 0 7 C-2.6875 7.25 -2.6875 7.25 -5 7 C-4.360625 6.21625 -3.72125 5.4325 -3.0625 4.625 C-1.01857687 2.20460719 -1.01857687 2.20460719 0 0 Z " fill="#1D460E" transform="translate(347,427)"/>
<path d="M0 0 C0.66 0 1.32 0 2 0 C0.75023244 3.65316671 0.32901247 4.78065836 -3 7 C-3.99 6.01 -4.98 5.02 -6 4 C-4.7934375 3.566875 -4.7934375 3.566875 -3.5625 3.125 C-0.8673532 2.26737432 -0.8673532 2.26737432 0 0 Z " fill="#E9F0E5" transform="translate(377,337)"/>
<path d="M0 0 C0.99 0.33 1.98 0.66 3 1 C2.60196439 3.88575819 2.20990931 4.82189513 -0.0625 6.75 C-0.701875 7.1625 -1.34125 7.575 -2 8 C-2.66 7.67 -3.32 7.34 -4 7 C-2.68 4.69 -1.36 2.38 0 0 Z " fill="#E7EEE1" transform="translate(123,168)"/>
<path d="M0 0 C3.82946843 1.45255699 5.12050295 3.42895561 7 7 C5.35 6.67 3.7 6.34 2 6 C2 5.34 2 4.68 2 4 C1.34 4 0.68 4 0 4 C-0.33 3.01 -0.66 2.02 -1 1 C-0.67 0.67 -0.34 0.34 0 0 Z " fill="#0C4124" transform="translate(483,39)"/>
<path d="M0 0 C0.91007812 0.00902344 1.82015625 0.01804688 2.7578125 0.02734375 C3.45648438 0.03894531 4.15515625 0.05054688 4.875 0.0625 C4.875 0.3925 4.875 0.7225 4.875 1.0625 C-2.55 2.5475 -2.55 2.5475 -10.125 4.0625 C-6.35068243 0.28818243 -5.13465105 -0.06582886 0 0 Z " fill="#D6EADD" transform="translate(94.125,-0.0625)"/>
<path d="M0 0 C0.66 0.33 1.32 0.66 2 1 C-0.97 5.95 -0.97 5.95 -4 11 C-5.06544301 7.80367098 -5.19353531 7.02974348 -4 4 C-1.9375 1.75 -1.9375 1.75 0 0 Z " fill="#1A452D" transform="translate(495,455)"/>
<path d="M0 0 C-2.35277269 2.72426311 -4.62496331 3.8141763 -8 5 C-8 4.01 -8 3.02 -8 2 C-3.71900826 -1.23966942 -3.71900826 -1.23966942 0 0 Z " fill="#E2EFE0" transform="translate(332,379)"/>
<path d="M0 0 C5.21979128 -0.1799928 9.07262981 0.02905192 14 2 C14 2.33 14 2.66 14 3 C8.78020872 3.1799928 4.92737019 2.97094808 0 1 C0 0.67 0 0.34 0 0 Z " fill="#396046" transform="translate(196,374)"/>
<path d="M0 0 C0 2 0 2 -2.3125 4.5 C-5 7 -5 7 -8 9 C-8 6 -8 6 -6.7578125 4.39453125 C-5.94957031 3.61142578 -5.94957031 3.61142578 -5.125 2.8125 C-4.59132812 2.28269531 -4.05765625 1.75289062 -3.5078125 1.20703125 C-2 0 -2 0 0 0 Z " fill="#E0F0DF" transform="translate(156,130)"/>
<path d="M0 0 C0.66 0.66 1.32 1.32 2 2 C1.828125 4.56640625 1.828125 4.56640625 1.25 7.5625 C0.97929688 9.04943359 0.97929688 9.04943359 0.703125 10.56640625 C0.47109375 11.36949219 0.2390625 12.17257813 0 13 C-0.99 13.495 -0.99 13.495 -2 14 C-1.85795259 12.41632253 -1.71119847 10.83306682 -1.5625 9.25 C-1.48128906 8.36828125 -1.40007812 7.4865625 -1.31640625 6.578125 C-1.03761535 4.30649548 -0.61209423 2.20148177 0 0 Z " fill="#2B563D" transform="translate(3,84)"/>
<path d="M0 0 C1.875 0.1875 1.875 0.1875 4 1 C5.78284814 4.29826907 6 6.1774751 6 10 C3.47650757 6.87567603 1.72743854 3.61939504 0 0 Z " fill="#DCEDE3" transform="translate(494,51)"/>
<path d="M0 0 C1.65 1.65 3.3 3.3 5 5 C4.01 5.33 3.02 5.66 2 6 C2 6.66 2 7.32 2 8 C1.01 7.67 0.02 7.34 -1 7 C-0.67 4.69 -0.34 2.38 0 0 Z " fill="#E0ECE4" transform="translate(19,463)"/>
<path d="M0 0 C0 3 0 3 -2.25 5.625 C-4.72881204 7.76579221 -5.83568489 8.64840943 -9 9 C-6 6 -3 3 0 0 Z " fill="#DEEDDD" transform="translate(241,183)"/>
<path d="M0 0 C2.125 0.9375 2.125 0.9375 4 2 C4 2.99 4 3.98 4 5 C3.01 5 2.02 5 1 5 C-0.6875 3 -0.6875 3 -2 1 C-1.34 0.67 -0.68 0.34 0 0 Z " fill="#295137" transform="translate(275,184)"/>
<path d="M0 0 C2.88437779 1.29299694 4.87219421 2.65941363 7 5 C5.1875 5.6875 5.1875 5.6875 3 6 C1.25 4.75 1.25 4.75 0 3 C0 2.01 0 1.02 0 0 Z " fill="#174227" transform="translate(269,179)"/>
<path d="M0 0 C3 0 3 0 5 1 C3.02 3.31 1.04 5.62 -1 8 C-1.33 6.68 -1.66 5.36 -2 4 C-1.34 3.67 -0.68 3.34 0 3 C0 2.01 0 1.02 0 0 Z " fill="#DEECE4" transform="translate(27,33)"/>
<path d="M0 0 C0.99 0.33 1.98 0.66 3 1 C3 1.66 3 2.32 3 3 C3.804375 3.12375 4.60875 3.2475 5.4375 3.375 C6.7059375 3.684375 6.7059375 3.684375 8 4 C8.33 4.66 8.66 5.32 9 6 C6.1875 5.8125 6.1875 5.8125 3 5 C1.125 2.4375 1.125 2.4375 0 0 Z " fill="#AFA84A" transform="translate(165,428)"/>
<path d="M0 0 C0 0.99 0 1.98 0 3 C-4.22857143 7 -4.22857143 7 -8 7 C-8 6.34 -8 5.68 -8 5 C-6.25 3.7109375 -6.25 3.7109375 -4 2.375 C-3.2575 1.92898438 -2.515 1.48296875 -1.75 1.0234375 C-1.1725 0.68570312 -0.595 0.34796875 0 0 Z " fill="#1F492F" transform="translate(281,350)"/>
<path d="M0 0 C3.08089673 2.77280706 4.68775452 5.06326356 6 9 C4.68 9 3.36 9 2 9 C1.855625 8.2575 1.71125 7.515 1.5625 6.75 C1.09812508 4.47972261 0.58136431 2.24240521 0 0 Z " fill="#1C482B" transform="translate(122,323)"/>
<path d="M0 0 C0.66 0.33 1.32 0.66 2 1 C1.67 2.65 1.34 4.3 1 6 C-0.65 6.33 -2.3 6.66 -4 7 C-2.68 4.69 -1.36 2.38 0 0 Z " fill="#114023" transform="translate(324,240)"/>
<path d="M0 0 C-0.375 2.4375 -0.375 2.4375 -1 5 C-1.99 5.495 -1.99 5.495 -3 6 C-3.99 5.34 -4.98 4.68 -6 4 C-2.25 0 -2.25 0 0 0 Z " fill="#264E35" transform="translate(247,175)"/>
<path d="M0 0 C3.16115776 1.36983503 3.9927092 1.9890638 6 5 C4.35 5.33 2.7 5.66 1 6 C1 5.01 1 4.02 1 3 C0.34 2.34 -0.32 1.68 -1 1 C-0.67 0.67 -0.34 0.34 0 0 Z " fill="#1F5033" transform="translate(255,166)"/>
<path d="M0 0 C0.598125 0.350625 1.19625 0.70125 1.8125 1.0625 C1.4825 2.0525 1.1525 3.0425 0.8125 4.0625 C-4.0625 2.3125 -4.0625 2.3125 -5.1875 0.0625 C-2.1875 -0.9375 -2.1875 -0.9375 0 0 Z " fill="#1B482E" transform="translate(53.1875,490.9375)"/>
<path d="M0 0 C-4.455 2.97 -4.455 2.97 -9 6 C-9 5.01 -9 4.02 -9 3 C-8.34 3 -7.68 3 -7 3 C-7 2.34 -7 1.68 -7 1 C-3.375 -1.125 -3.375 -1.125 0 0 Z " fill="#DCEDDD" transform="translate(213,243)"/>
<path d="M0 0 C0 3 0 3 -2.5 5.6875 C-3.325 6.450625 -4.15 7.21375 -5 8 C-5.66 7.34 -6.32 6.68 -7 6 C-4.69 4.02 -2.38 2.04 0 0 Z " fill="#DEEBDB" transform="translate(218,204)"/>
<path d="M0 0 C1.32 0 2.64 0 4 0 C4.33 2.31 4.66 4.62 5 7 C3.29115995 5.37660195 1.62553283 3.70680947 0 2 C0 1.34 0 0.68 0 0 Z " fill="#DCEBE1" transform="translate(488,42)"/>
<path d="M0 0 C0 3 0 3 -2.5 5.6875 C-3.325 6.450625 -4.15 7.21375 -5 8 C-5.66 7.34 -6.32 6.68 -7 6 C-4.69 4.02 -2.38 2.04 0 0 Z " fill="#255035" transform="translate(355,363)"/>
<path d="M0 0 C1.875 0.25 1.875 0.25 4 1 C5.25 3.0625 5.25 3.0625 6 5 C4.125 4.75 4.125 4.75 2 4 C0.75 1.9375 0.75 1.9375 0 0 Z " fill="#153C22" transform="translate(297,205)"/>
<path d="M0 0 C2.125 0.9375 2.125 0.9375 4 2 C3.34 3.32 2.68 4.64 2 6 C0.68 4.35 -0.64 2.7 -2 1 C-1.34 0.67 -0.68 0.34 0 0 Z " fill="#2A5138" transform="translate(266,176)"/>
<path d="M0 0 C2.52588702 2.36292656 3.88820837 3.66462511 5 7 C2.13275314 6.42655063 1.1385485 6.1385485 -1 4 C-0.625 1.875 -0.625 1.875 0 0 Z " fill="#1B462E" transform="translate(490,46)"/>
<path d="M0 0 C1.0625 1.875 1.0625 1.875 2 4 C1.67 4.66 1.34 5.32 1 6 C-0.65 6 -2.3 6 -4 6 C-2.68 4.02 -1.36 2.04 0 0 Z " fill="#15472B" transform="translate(31,34)"/>
<path d="M0 0 C0.66 0 1.32 0 2 0 C2 0.99 2 1.98 2 3 C3.65 3.33 5.3 3.66 7 4 C6.01 5.485 6.01 5.485 5 7 C2.69 5.35 0.38 3.7 -2 2 C-1.34 1.34 -0.68 0.68 0 0 Z " fill="#DAECE1" transform="translate(463,17)"/>
<path d="M0 0 C5.75 1.875 5.75 1.875 8 3 C8 3.66 8 4.32 8 5 C7.01 5 6.02 5 5 5 C5 4.34 5 3.68 5 3 C4.01 3.33 3.02 3.66 2 4 C1.34 2.68 0.68 1.36 0 0 Z " fill="#164429" transform="translate(447,11)"/>
<path d="M0 0 C2.875 0.25 2.875 0.25 6 1 C7.375 3.0625 7.375 3.0625 8 5 C1.125 2.25 1.125 2.25 0 0 Z " fill="#224C31" transform="translate(186,369)"/>
<path d="M0 0 C0.6875 1.8125 0.6875 1.8125 1 4 C-0.4375 5.75 -0.4375 5.75 -2 7 C-2.99 6.67 -3.98 6.34 -5 6 C-3.35 4.02 -1.7 2.04 0 0 Z " fill="#D5E5D4" transform="translate(338,357)"/>
<path d="M0 0 C3.68754757 0.49831724 5.60490662 1.10067643 8 4 C5 5 5 5 2.875 4.25 C1 3 1 3 0 0 Z " fill="#DBEEDD" transform="translate(273,278)"/>
<path d="M0 0 C0.99 0.33 1.98 0.66 3 1 C3 1.66 3 2.32 3 3 C3.99 3.66 4.98 4.32 6 5 C3.625 5.1875 3.625 5.1875 1 5 C0.34 4.01 -0.32 3.02 -1 2 C-0.67 1.34 -0.34 0.68 0 0 Z " fill="#033F1D" transform="translate(254,168)"/>
<path d="M0 0 C2.97 0 5.94 0 9 0 C6.01353231 1.99097846 3.40312738 2.94124926 0 4 C0 2.68 0 1.36 0 0 Z " fill="#DDECE3" transform="translate(66,6)"/>
</svg>
